<?xml version="1.0" encoding="UTF-8"?>
<svg width="24px" height="24px" viewBox="0 0 24 24" stroke-width="1.5" fill="none" xmlns="http://www.w3.org/2000/svg" color="#000000">
  <path d="M4 13.5V13c0-4.97 4.03-9 9-9s9 4.03 9 9v.5" stroke="#000000" stroke-width="1.5" stroke-linecap="round" stroke-linejoin="round"></path>
  <path d="M22 15V9c0-4.97-4.03-9-9-9s-9 4.03-9 9v6" stroke="#000000" stroke-width="1.5" stroke-linecap="round" stroke-linejoin="round"></path>
  <path d="M2 15.4v-2.8a2 2 0 012-2h1a2 2 0 012 2v2.8a2 2 0 01-2 2H4a2 2 0 01-2-2z" stroke="#000000" stroke-width="1.5"></path>
  <path d="M19 15.4v-2.8a2 2 0 012-2h1a2 2 0 012 2v2.8a2 2 0 01-2 2h-1a2 2 0 01-2-2z" stroke="#000000" stroke-width="1.5"></path>
</svg>