<svg fill="#000000" version="1.1" id="Layer_1" xmlns="http://www.w3.org/2000/svg" xmlns:xlink="http://www.w3.org/1999/xlink" viewBox="0 0 512 512" xml:space="preserve"><g id="SVGRepo_bgCarrier" stroke-width="0"></g><g id="SVGRepo_tracerCarrier" stroke-linecap="round" stroke-linejoin="round"></g><g id="SVGRepo_iconCarrier"> <g> <g> <path d="M271.047,158.156c-4.744,1.536-9.801,2.372-15.047,2.372s-10.292-0.836-15.036-2.372 c-3.574,5.35-10.146,16.697-12.81,31.117h55.693C281.182,174.832,274.589,163.464,271.047,158.156z"></path> </g> </g> <g> <g> <path d="M256,94.083c-9.676,0-17.554,7.868-17.554,17.544c0,9.686,7.879,17.554,17.554,17.554c9.676,0,17.554-7.868,17.554-17.554 C273.554,101.951,265.676,94.083,256,94.083z"></path> </g> </g> <g> <g> <path d="M40.577,8.359l-0.014,278.465h430.874V7.837L40.577,8.359z M207.099,111.626c0-26.958,21.943-48.891,48.901-48.891 s48.901,21.932,48.901,48.891c0,10.324-3.218,19.895-8.694,27.794c6.572,9.519,20.281,32.956,20.146,62.725 c0,1.139-0.031,2.278-0.073,3.427l-0.606,15.047H196.326l-0.606-15.047c-0.042-1.149-0.073-2.288-0.073-3.427 c-0.136-29.769,13.573-53.206,20.146-62.725C210.317,131.521,207.099,121.95,207.099,111.626z M316.865,262.792H195.135v-31.347 h121.731V262.792z"></path> </g> </g> <g> <g> <rect y="470.726" width="512" height="33.437"></rect> </g> </g> <g> <g> <path d="M476.087,318.171H35.913L4.618,439.38h502.763L476.087,318.171z M273.241,336.98h26.028l1.714,27.596h-27.742V336.98z M213.943,336.98h27.951v27.596h-27.951V336.98z M156.808,336.98h25.788v27.596h-29.205L156.808,336.98z M115.503,415.514H82.547 l5.224-27.084h31.086L115.503,415.514z M121.804,364.575H92.369l5.318-27.596h27.523L121.804,364.575z M147.09,415.514 l3.354-27.084h152.012l1.672,27.084H147.09z M330.679,336.98h28.045l3.166,27.596h-29.508L330.679,336.98z M335.538,415.514 l-1.672-27.084h30.762l3.103,27.084H335.538z M390.269,336.98h27.554l4.942,27.596h-29.33L390.269,336.98z M399.276,415.514 l-3.103-27.084h30.856l4.848,27.084H399.276z"></path> </g> </g> </g></svg>